<svg version="1.1" id="Layer_1" xmlns="http://www.w3.org/2000/svg" xmlns:xlink="http://www.w3.org/1999/xlink" x="0px" y="0px"
	 width="100%" viewBox="25 465 694 260" xml:space="preserve">
<path fill="#FAFBFB" opacity="1.000000" stroke="none" 
	d="
M225.242828,577.013855 
	C225.213394,573.183838 225.334778,569.839355 225.073929,566.524963 
	C224.992752,565.493347 224.079987,564.090759 223.176575,563.685181 
	C222.302643,563.292847 220.603607,563.575134 219.864395,564.232727 
	C214.636597,568.883057 209.475632,573.618835 204.514496,578.549927 
	C203.543701,579.514832 203.057602,581.485779 203.164352,582.932495 
	C203.873642,592.544434 200.163971,599.417664 190.935562,603.203979 
	C190.935562,616.220520 190.833710,629.201660 191.084137,642.176025 
	C191.110855,643.560120 192.942947,645.305603 194.366547,646.202026 
	C203.466995,651.932068 206.231689,665.073364 200.034027,673.926025 
	C193.608887,683.103577 180.911682,685.008118 172.321579,678.082886 
	C163.569916,671.027466 162.191910,658.103149 169.354126,650.092529 
	C170.017380,649.350708 170.684921,648.330994 171.537064,648.083923 
	C178.897369,645.950195 177.914200,640.103027 177.856949,634.521729 
	C177.764633,625.523438 177.702438,616.519470 177.937210,607.525940 
	C178.024033,604.199707 177.212814,602.073669 173.359604,601.316711 
	C167.846100,606.476074 162.059021,611.731445 156.521820,617.238037 
	C155.646545,618.108459 155.546661,620.148438 155.688812,621.588440 
	C156.583282,630.649658 151.716660,638.740173 143.099060,642.204895 
	C135.401291,645.299744 126.629944,642.786133 121.191833,635.926880 
	C114.005745,626.862732 116.866913,613.148926 126.961479,607.376282 
	C128.317078,606.601074 129.841110,604.650879 129.857834,603.227905 
	C130.057632,586.236023 129.986786,569.240967 129.986786,551.421814 
	C123.886070,554.133179 118.226646,556.648376 111.658287,559.567627 
	C111.658287,554.850220 111.601883,550.650452 111.718094,546.455505 
	C111.735863,545.813904 112.426056,545.023804 113.016708,544.590881 
	C119.208450,540.052124 134.766556,535.747620 143.321091,536.342163 
	C143.321091,538.239197 143.328873,540.183594 143.319870,542.127808 
	C143.228058,561.959534 143.212967,581.792297 142.960220,601.621948 
	C142.918945,604.858765 143.483261,607.081116 148.145996,609.235413 
	C153.383438,603.442139 158.704285,597.720154 163.779861,591.788330 
	C164.671799,590.745850 164.901993,588.802734 164.814743,587.312073 
	C164.306290,578.625916 167.613190,572.183777 175.320526,567.919739 
	C176.435654,567.302795 177.515991,565.477661 177.532242,564.197876 
	C177.684601,552.201050 177.701080,540.199280 177.463486,528.204712 
	C177.432999,526.665527 176.090591,524.585815 174.739502,523.732056 
	C166.553406,518.559021 162.815628,510.078094 165.338242,501.579285 
	C167.780487,493.351227 175.352173,487.777069 184.077576,487.783661 
	C192.646545,487.790131 200.240112,493.563080 202.571762,501.843689 
	C205.045700,510.629578 201.501312,518.921936 193.332596,524.056824 
	C192.206436,524.764771 191.037109,526.457520 191.018784,527.710876 
	C190.840866,539.874207 190.762680,552.044495 191.050247,564.203430 
	C191.093903,566.049011 193.155991,567.846741 194.284470,569.666626 
	C195.053589,569.884888 195.822708,570.103149 196.591827,570.321411 
	C201.584579,564.733398 206.747559,559.283020 211.452850,553.462646 
	C212.661362,551.967834 212.821762,549.299988 212.787735,547.181885 
	C212.626114,537.121704 219.162552,528.752319 228.705704,527.136963 
	C238.650452,525.453613 247.370499,530.852783 250.359482,540.544312 
	C252.889938,548.749146 249.576736,557.748901 241.704193,562.543579 
	C239.322876,563.993896 238.530411,565.414978 238.547012,567.998169 
	C238.609146,577.662415 238.348923,587.332581 238.639175,596.987549 
	C238.685410,598.525146 240.689346,600.333130 242.207962,601.440369 
	C248.882309,606.306824 252.071381,612.781250 250.798798,620.891296 
	C249.595947,628.556885 245.140610,634.033081 237.482910,636.188904 
	C229.998962,638.295654 223.282166,636.596558 217.806808,630.934814 
	C209.427856,622.270752 211.471420,607.301636 222.077240,601.226318 
	C224.639496,599.758606 225.580139,598.376587 225.452713,595.506775 
	C225.186722,589.516907 225.292892,583.510559 225.242828,577.013855 
M231.632645,610.765808 
	C225.545013,612.390625 222.712296,617.738831 226.306442,621.675049 
	C227.867111,623.384338 231.562805,624.817932 233.453308,624.118530 
	C235.696640,623.288635 238.188263,620.178345 238.506882,617.781860 
	C238.997711,614.089966 236.594238,611.201477 231.632645,610.765808 
M190.117035,503.651337 
	C188.180664,500.646484 185.250488,499.039185 182.066833,500.516693 
	C179.989517,501.480774 177.651154,503.955048 177.328690,506.045685 
	C177.005219,508.142914 178.449387,511.648529 180.192963,512.631348 
	C182.214645,513.770935 185.800262,513.655579 187.996002,512.602478 
	C191.106552,511.110626 191.665497,507.722351 190.117035,503.651337 
M135.716278,631.183899 
	C142.103485,630.367493 145.495926,625.046326 142.016602,620.625366 
	C140.554611,618.767761 137.061569,617.055603 135.003799,617.524414 
	C132.906738,618.002197 130.533859,620.995117 129.900726,623.326538 
	C128.871887,627.114990 131.002258,630.014404 135.716278,631.183899 
M177.391098,583.174377 
	C176.627701,586.589783 177.269760,589.916504 180.648834,591.064697 
	C182.956192,591.848816 186.451889,591.714966 188.327805,590.417542 
	C189.990921,589.267395 191.153732,585.725159 190.695267,583.644958 
	C190.236542,581.563477 187.801407,579.155396 185.684738,578.373474 
	C182.176208,577.077332 179.358765,579.097107 177.391098,583.174377 
M186.707993,669.494446 
	C190.498581,667.803162 191.962006,664.569214 190.612686,661.010315 
	C189.829849,658.945557 187.384155,656.749329 185.244354,656.122620 
	C181.028183,654.887573 177.347000,658.173645 177.136246,662.488159 
	C176.904434,667.233704 180.202332,669.956787 186.707993,669.494446 
M235.330841,552.126770 
	C236.128983,551.301941 237.130859,550.594788 237.687637,549.630615 
	C239.466980,546.549133 239.425919,543.018982 236.566376,541.147644 
	C234.485031,539.785645 230.378204,539.052795 228.671310,540.222961 
	C226.644150,541.612732 225.255096,545.370117 225.331940,548.051453 
	C225.443985,551.961609 229.294495,553.425232 235.330841,552.126770 
z"/>
<path fill="#FCFCFC" opacity="1.000000" stroke="none" 
	d="
M673.967224,576.000000 
	C673.965393,597.651550 673.965393,618.803162 673.965393,640.282104 
	C668.309448,640.282104 662.893799,640.282104 656.939331,640.282104 
	C656.939331,616.665527 656.939331,593.085510 656.939331,569.505432 
	C656.486023,569.341370 656.032715,569.177246 655.579407,569.013184 
	C654.484070,571.038086 653.318542,573.028442 652.304504,575.093262 
	C643.879700,592.247803 635.250183,609.308289 627.223633,626.647766 
	C624.904541,631.657593 621.257507,629.392700 618.052734,630.018311 
	C614.939819,630.625977 613.462463,629.180542 612.091553,626.353455 
	C602.822449,607.238831 593.318115,588.238342 583.280090,567.969543 
	C583.280090,592.876587 583.280090,616.493652 583.280090,640.326172 
	C577.375305,640.326172 571.946960,640.326172 566.206055,640.326172 
	C566.206055,606.372803 566.206055,572.643738 566.206055,538.346497 
	C572.905457,538.346497 579.524475,538.195740 586.123108,538.495544 
	C587.217163,538.545227 588.561829,540.391907 589.216675,541.696350 
	C598.914429,561.014893 608.514404,580.382629 618.142151,599.736389 
	C618.574890,600.606262 619.051697,601.454224 619.733459,602.736389 
	C620.421204,601.836548 620.991577,601.294678 621.318604,600.632629 
	C631.037964,580.956055 640.800781,561.300171 650.353394,541.542725 
	C651.664917,538.830139 653.136658,538.041504 656.019531,538.169128 
	C661.811401,538.425598 667.622620,538.245422 673.969055,538.245422 
	C673.969055,550.975220 673.969055,563.237610 673.967224,576.000000 
z"/>
<path fill="#FBFBFC" opacity="1.000000" stroke="none" 
	d="
M509.335938,552.546997 
	C509.950409,553.780884 510.429474,554.659119 510.827606,555.572571 
	C523.034790,583.582214 535.234070,611.595337 547.850952,640.563965 
	C541.035706,640.563965 534.653015,640.661438 528.281128,640.442627 
	C527.469360,640.414856 526.435303,638.856323 525.978333,637.801514 
	C523.149109,631.271057 520.455505,624.681824 517.635132,617.915955 
	C501.800415,617.915955 485.987701,617.850098 470.178101,618.041138 
	C468.916046,618.056396 467.109070,619.585449 466.523315,620.856873 
	C464.023315,626.283813 461.760712,631.831238 459.677277,637.433594 
	C458.785217,639.832275 457.648438,640.694519 454.997437,640.552124 
	C449.732635,640.269226 444.441925,640.468445 438.233002,640.468445 
	C453.533051,605.878906 468.475098,572.098755 483.417725,538.317322 
	C489.277374,538.317322 494.935577,538.173706 500.575592,538.430481 
	C501.799469,538.486206 503.458069,539.716431 504.054382,540.856567 
	C505.973969,544.526917 507.490692,548.407898 509.335938,552.546997 
M488.465363,567.997925 
	C483.879028,579.161682 479.292694,590.325378 474.594666,601.760986 
	C486.697235,601.760986 498.246124,601.760986 510.525513,601.760986 
	C504.530762,587.205750 498.738617,573.142456 492.638580,558.331604 
	C491.133545,561.873352 489.975769,564.597961 488.465363,567.997925 
z"/>
<path fill="#FBFCFC" opacity="1.000000" stroke="none" 
	d="
M417.849121,605.902405 
	C409.389954,607.543640 401.331848,609.525146 393.155060,610.409119 
	C386.439819,611.135132 379.583618,610.557129 372.359375,610.557129 
	C372.359375,620.612793 372.359375,630.191711 372.359375,640.126526 
	C365.725983,640.126526 359.527100,640.126526 353.235107,640.126526 
	C353.235107,606.256409 353.235107,572.526123 353.235107,539.002808 
	C370.589813,539.002808 387.744995,538.164673 404.778503,539.244812 
	C420.954163,540.270508 431.669983,550.769897 434.566895,565.583435 
	C437.856445,582.404968 431.444061,598.147766 417.849121,605.902405 
M412.698029,560.838928 
	C409.986603,559.290955 407.385345,556.678894 404.544067,556.384705 
	C393.929474,555.285522 383.236206,554.945679 372.494232,554.316406 
	C372.494232,568.297791 372.494232,580.986145 372.494232,594.295044 
	C382.350800,593.843750 391.892700,594.134216 401.207092,592.816467 
	C416.655975,590.630798 422.758362,573.930176 412.698029,560.838928 
z"/>
<path fill="#FCFCFC" opacity="1.000000" stroke="none" 
	d="
M322.026917,598.000000 
	C322.027008,612.310486 322.027008,626.120972 322.027008,640.151123 
	C315.576141,640.151123 309.471252,640.151123 303.185181,640.151123 
	C303.185181,606.256836 303.185181,572.641357 303.185181,538.655334 
	C309.271118,538.655334 315.326447,538.655334 322.026825,538.655334 
	C322.026825,558.339355 322.026825,577.919678 322.026917,598.000000 
z"/>
<path fill="#209991" opacity="1.000000" stroke="none" 
	d="
M231.990372,610.769226 
	C236.594238,611.201477 238.997711,614.089966 238.506882,617.781860 
	C238.188263,620.178345 235.696640,623.288635 233.453308,624.118530 
	C231.562805,624.817932 227.867111,623.384338 226.306442,621.675049 
	C222.712296,617.738831 225.545013,612.390625 231.990372,610.769226 
z"/>
<path fill="#383E4D" opacity="1.000000" stroke="none" 
	d="
M190.305557,503.997070 
	C191.665497,507.722351 191.106552,511.110626 187.996002,512.602478 
	C185.800262,513.655579 182.214645,513.770935 180.192963,512.631348 
	C178.449387,511.648529 177.005219,508.142914 177.328690,506.045685 
	C177.651154,503.955048 179.989517,501.480774 182.066833,500.516693 
	C185.250488,499.039185 188.180664,500.646484 190.305557,503.997070 
z"/>
<path fill="#13988D" opacity="1.000000" stroke="none" 
	d="
M135.363464,631.148010 
	C131.002258,630.014404 128.871887,627.114990 129.900726,623.326538 
	C130.533859,620.995117 132.906738,618.002197 135.003799,617.524414 
	C137.061569,617.055603 140.554611,618.767761 142.016602,620.625366 
	C145.495926,625.046326 142.103485,630.367493 135.363464,631.148010 
z"/>
<path fill="#383E4D" opacity="1.000000" stroke="none" 
	d="
M177.548630,582.817749 
	C179.358765,579.097107 182.176208,577.077332 185.684738,578.373474 
	C187.801407,579.155396 190.236542,581.563477 190.695267,583.644958 
	C191.153732,585.725159 189.990921,589.267395 188.327805,590.417542 
	C186.451889,591.714966 182.956192,591.848816 180.648834,591.064697 
	C177.269760,589.916504 176.627701,586.589783 177.548630,582.817749 
z"/>
<path fill="#383E4D" opacity="1.000000" stroke="none" 
	d="
M186.338272,669.637695 
	C180.202332,669.956787 176.904434,667.233704 177.136246,662.488159 
	C177.347000,658.173645 181.028183,654.887573 185.244354,656.122620 
	C187.384155,656.749329 189.829849,658.945557 190.612686,661.010315 
	C191.962006,664.569214 190.498581,667.803162 186.338272,669.637695 
z"/>
<path fill="#333A4C" opacity="1.000000" stroke="none" 
	d="
M234.980957,552.307861 
	C229.294495,553.425232 225.443985,551.961609 225.331940,548.051453 
	C225.255096,545.370117 226.644150,541.612732 228.671310,540.222961 
	C230.378204,539.052795 234.485031,539.785645 236.566376,541.147644 
	C239.425919,543.018982 239.466980,546.549133 237.687637,549.630615 
	C237.130859,550.594788 236.128983,551.301941 234.980957,552.307861 
z"/>
<path fill="#333A4C" opacity="1.000000" stroke="none" 
	d="
M488.641663,567.660278 
	C489.975769,564.597961 491.133545,561.873352 492.638580,558.331604 
	C498.738617,573.142456 504.530762,587.205750 510.525513,601.760986 
	C498.246124,601.760986 486.697235,601.760986 474.594666,601.760986 
	C479.292694,590.325378 483.879028,579.161682 488.641663,567.660278 
z"/>
<path fill="#333A4C" opacity="1.000000" stroke="none" 
	d="
M412.951935,561.109009 
	C422.758362,573.930176 416.655975,590.630798 401.207092,592.816467 
	C391.892700,594.134216 382.350800,593.843750 372.494232,594.295044 
	C372.494232,580.986145 372.494232,568.297791 372.494232,554.316406 
	C383.236206,554.945679 393.929474,555.285522 404.544067,556.384705 
	C407.385345,556.678894 409.986603,559.290955 412.951935,561.109009 
z"/>
</svg>