<svg version="1.1" id="Layer_1" xmlns="http://www.w3.org/2000/svg" xmlns:xlink="http://www.w3.org/1999/xlink" x="0px" y="0px"
	 width="100%" viewBox="0 404 638 239" xml:space="preserve">
<path fill="#000000" opacity="1.000000" stroke="none" 
	d="
M153.769226,561.439819 
	C153.825241,552.170288 153.910599,543.340210 153.894241,534.510254 
	C153.890411,532.445190 154.606186,529.886963 151.986130,528.814392 
	C149.801300,527.920044 148.847839,530.193542 147.421585,531.166809 
	C143.506287,533.838501 140.846954,537.739441 137.704758,541.173462 
	C136.170242,542.850464 136.277313,544.784912 136.213562,546.780701 
	C135.890717,556.888367 129.283310,564.428772 120.471565,564.788757 
	C110.499344,565.196106 102.703499,558.215027 101.896980,547.785339 
	C101.451904,542.029663 104.329399,537.361145 108.524956,533.866516 
	C111.323059,531.535950 112.090088,529.030334 112.109047,525.662292 
	C112.172760,514.338806 112.463409,503.016785 112.604614,491.693390 
	C112.628830,489.751373 113.064552,487.659027 111.290703,485.771820 
	C106.219620,486.031799 102.576271,490.822723 97.056320,491.050598 
	C96.012451,486.929810 96.720291,482.988129 96.856590,479.085968 
	C96.880913,478.389587 97.524506,477.365906 98.145844,477.092407 
	C105.818665,473.715179 112.910423,468.515564 122.044151,469.669556 
	C124.503922,469.980316 125.568985,470.846588 125.621544,473.362762 
	C125.941498,488.678955 126.342102,503.992371 125.492493,519.305969 
	C125.335739,522.131348 125.371880,524.967773 125.332779,527.799316 
	C125.313591,529.188538 125.553818,530.486389 126.948181,531.190979 
	C128.460022,531.954956 129.473221,531.003418 130.455383,530.074707 
	C133.964600,526.756409 137.426041,523.386414 140.980240,520.117188 
	C142.807144,518.436768 142.850281,516.362854 142.765350,514.152344 
	C142.501953,507.295380 144.862198,501.706299 150.969879,498.164673 
	C153.159271,496.895111 153.778366,495.180603 153.768234,492.809540 
	C153.729065,483.646545 153.740479,474.481995 153.882034,465.320343 
	C153.925034,462.536499 152.963699,460.734344 150.628448,459.129639 
	C142.988358,453.879608 140.411484,445.624420 143.713791,437.905792 
	C146.924789,430.400543 155.454407,425.648193 163.186996,427.056091 
	C171.148636,428.505737 177.726120,435.937592 177.897812,444.392853 
	C178.020370,450.428619 174.953491,455.276093 170.283783,458.893280 
	C168.278809,460.446320 166.998657,461.887238 167.020401,464.559418 
	C167.096329,473.888275 166.991745,483.218506 166.991516,492.548218 
	C166.991470,494.372192 166.879364,496.363647 169.022675,497.232666 
	C171.043442,498.052032 172.057877,496.352722 173.221024,495.271301 
	C175.172058,493.457336 176.918320,491.415222 178.928879,489.674866 
	C182.876190,486.258118 185.107147,482.500275 184.963776,476.813904 
	C184.769638,469.114197 191.144028,462.726379 199.196854,461.045380 
	C206.399658,459.541748 214.398346,463.955444 217.919800,471.376648 
	C221.151947,478.188141 219.784561,487.024475 213.575226,491.230164 
	C208.890915,494.402954 208.343063,498.376434 208.296631,503.055939 
	C208.258606,506.887421 208.464905,510.727417 208.279373,514.549866 
	C207.976440,520.791199 208.407532,525.884949 214.404251,530.466675 
	C222.094101,536.342163 220.744995,548.924133 213.083725,555.614685 
	C206.287384,561.549927 194.369827,560.387634 188.918762,553.257996 
	C182.479599,544.835876 183.715027,533.503052 192.000916,528.159485 
	C194.770493,526.373352 195.801605,524.477661 195.730820,521.302429 
	C195.563782,513.809204 195.695160,506.309357 195.701172,498.812195 
	C195.702377,497.304138 195.808548,495.687317 194.185989,494.869812 
	C192.440445,493.990326 191.390320,495.333008 190.338654,496.362762 
	C186.529846,500.092102 182.768250,503.869720 178.955490,507.594971 
	C177.791672,508.732056 177.289429,510.003510 177.521805,511.632812 
	C178.511292,518.570374 175.033203,523.508606 169.967514,527.472046 
	C167.903168,529.087219 166.941788,530.763611 166.969513,533.322144 
	C167.065140,542.150879 167.147308,550.981934 167.034103,559.809570 
	C166.991669,563.118591 168.185364,565.194885 170.856110,567.279480 
	C179.353378,573.911987 179.964905,585.980835 172.567581,593.818298 
	C165.687683,601.107483 153.791824,600.550659 146.772522,592.610718 
	C140.147797,585.117065 141.612213,572.692749 149.871887,567.090698 
	C151.832886,565.760681 154.022018,564.786499 153.769226,561.439819 
M156.249054,516.542419 
	C159.274704,518.614380 162.236404,518.629944 164.698380,515.788391 
	C166.516769,513.689636 165.916367,511.407135 164.204590,509.453827 
	C162.311264,507.293365 159.963165,506.743927 157.494507,508.305176 
	C154.459793,510.224457 153.822174,512.858215 156.249054,516.542419 
M196.784576,541.024780 
	C196.338074,543.808044 197.354431,545.824280 199.912689,547.058472 
	C201.739563,547.939758 203.442398,547.763245 204.941818,546.412720 
	C206.595642,544.923035 207.773590,543.198975 207.177261,540.788818 
	C206.596802,538.442749 204.968872,537.040405 202.737350,536.682251 
	C199.903275,536.227295 198.131790,537.900391 196.784576,541.024780 
M160.387604,586.656921 
	C163.603333,586.186768 165.556473,584.396240 165.448608,581.087708 
	C165.374313,578.809082 164.085175,576.969116 161.769760,576.336548 
	C158.655197,575.485779 156.158005,576.376892 155.090164,579.645386 
	C153.744034,583.765747 155.782501,585.844604 160.387604,586.656921 
M156.117386,448.245148 
	C158.827057,450.613556 161.592422,450.540314 164.085129,448.070343 
	C165.780594,446.390381 166.051407,444.247070 164.706345,442.127686 
	C163.181320,439.724762 160.928482,438.719666 158.275589,439.729645 
	C154.380310,441.212708 154.502869,444.296539 156.117386,448.245148 
M199.524780,474.090942 
	C196.841019,476.328094 196.183868,479.102325 198.132736,481.971100 
	C199.607651,484.142059 202.048584,484.429321 204.365601,483.281067 
	C206.828552,482.060455 207.379913,479.719910 206.649048,477.335266 
	C205.703201,474.249146 203.563156,472.717865 199.524780,474.090942 
M123.240524,544.198303 
	C119.116310,541.417236 115.527969,542.003540 114.434532,545.723206 
	C113.773468,547.972046 114.179451,550.041748 116.281807,551.449768 
	C118.065277,552.644226 119.877243,553.041687 121.840240,551.696655 
	C124.477264,549.889709 125.097626,547.644104 123.240524,544.198303 
z"/>
<path fill="#000000" opacity="1.000000" stroke="none" 
	d="
M564.940430,512.857544 
	C559.090332,525.417664 553.300232,537.591980 547.798340,549.895081 
	C546.145935,553.590088 543.690430,554.471802 539.944824,554.439087 
	C536.213074,554.406372 533.824463,553.471558 532.124878,549.813049 
	C524.628662,533.676880 516.855591,517.669312 508.954010,501.136536 
	C508.954010,515.444702 508.948730,529.277100 508.956787,543.109436 
	C508.959686,548.107422 509.006348,553.105469 509.010040,558.103455 
	C509.012115,560.912598 507.798584,562.355713 504.765076,562.311646 
	C489.685791,562.092346 491.852173,564.108643 491.829041,550.383179 
	C491.788055,526.057922 491.849548,501.732513 491.876465,477.407166 
	C491.883942,470.639160 492.247620,470.075714 498.756012,470.123047 
	C516.485352,470.251984 511.021973,467.901855 518.488770,483.121185 
	C525.231445,496.864502 531.542297,510.819580 538.073669,524.667053 
	C538.476318,525.520752 539.143066,526.249939 540.137817,527.689514 
	C542.390320,522.978271 544.385559,518.838074 546.352661,514.684509 
	C552.836975,500.992432 559.309998,487.294983 565.791077,473.601349 
	C566.434875,472.241089 567.033752,470.670654 568.724854,470.456909 
	C574.536682,469.722198 580.370239,469.793732 586.132446,470.827393 
	C588.567139,471.264130 588.178467,473.568024 588.185242,475.335449 
	C588.220581,484.665558 588.190979,493.995911 588.186768,503.326172 
	C588.178650,521.153564 588.074219,538.981812 588.239563,556.807617 
	C588.277466,560.891296 587.008545,562.423340 582.839539,562.320740 
	C569.929932,562.002808 570.778442,563.887512 571.107422,550.555176 
	C571.509766,534.248657 571.796997,517.953003 570.619568,501.344299 
	C568.783325,505.069885 566.947083,508.795502 564.940430,512.857544 
z"/>
<path fill="#000000" opacity="1.000000" stroke="none" 
	d="
M390.343689,541.387024 
	C400.022583,518.689148 409.560455,496.347382 419.054138,473.986786 
	C419.999603,471.759918 421.379181,470.764008 423.904816,470.505005 
	C438.481262,469.009918 438.609680,468.881012 444.377228,482.424072 
	C454.871338,507.066040 465.213104,531.773071 475.555389,556.479370 
	C477.736511,561.689880 477.357513,562.133057 471.824280,562.247253 
	C458.591187,562.520325 458.325714,562.615723 453.815033,550.060364 
	C451.943176,544.850098 449.374512,542.774719 443.728912,543.028748 
	C433.423584,543.492554 423.082245,543.274109 412.758545,543.138977 
	C409.656525,543.098328 407.778046,544.069275 406.714478,547.061157 
	C405.377747,550.821350 403.612488,554.428589 402.258392,558.183472 
	C401.194977,561.132446 399.315460,562.423706 396.222565,562.232605 
	C391.777252,561.957825 387.272980,562.752502 381.822083,561.426697 
	C384.693939,554.669617 387.442078,548.203735 390.343689,541.387024 
M431.444153,495.451660 
	C430.798370,494.588928 430.762817,493.112427 428.408386,493.206390 
	C424.077087,503.875549 419.634125,514.819885 414.959808,526.334106 
	C425.034546,526.334106 434.140533,526.334106 444.127014,526.334106 
	C439.747070,515.700439 435.711884,505.903809 431.444153,495.451660 
z"/>
<path fill="#000000" opacity="1.000000" stroke="none" 
	d="
M306.622955,483.077881 
	C306.607666,470.185181 306.608215,470.073761 319.143188,470.135956 
	C329.464233,470.187195 339.785919,469.743927 350.108582,470.668182 
	C373.814117,472.790680 383.268127,489.584900 378.821655,510.941772 
	C375.754181,525.675171 365.020081,534.217224 349.142578,535.118469 
	C342.332977,535.504944 335.484955,535.356628 328.658203,535.235352 
	C325.476898,535.178833 324.122009,536.257385 324.211060,539.555664 
	C324.377380,545.715942 324.173676,551.885925 324.321991,558.047058 
	C324.394348,561.051819 323.192749,562.086975 320.245850,562.282776 
	C306.487610,563.196899 306.560944,563.265259 306.599365,549.540649 
	C306.660919,527.548462 306.620941,505.555939 306.622955,483.077881 
M358.234863,513.697876 
	C363.052094,507.932861 363.252991,501.300781 360.468353,494.940674 
	C357.674835,488.560303 351.598358,486.956635 345.030609,486.996643 
	C339.708557,487.029053 334.384064,487.006531 329.063934,486.875183 
	C325.835144,486.795471 324.109222,487.812073 324.186218,491.422302 
	C324.352844,499.236664 324.329498,507.057373 324.239594,514.873779 
	C324.205017,517.878784 325.480835,519.094910 328.406769,519.030212 
	C333.893433,518.908875 339.382355,518.853699 344.870483,518.844727 
	C349.723053,518.836792 354.024597,517.394897 358.234863,513.697876 
z"/>
<path fill="#000000" opacity="1.000000" stroke="none" 
	d="
M281.150055,543.997620 
	C281.107330,548.993225 281.053131,553.489380 281.023926,557.985596 
	C281.005463,560.831055 279.709442,562.348022 276.754883,562.216309 
	C276.422943,562.201477 276.088989,562.237854 275.756073,562.235901 
	C260.183533,562.145386 262.883026,563.763123 262.778229,549.829590 
	C262.595367,525.515137 262.847473,501.197296 262.629425,476.883484 
	C262.587372,472.193634 263.990082,470.544830 268.694214,470.224091 
	C280.608795,469.411774 280.981995,469.492096 281.023834,481.043854 
	C281.099274,501.861847 281.110901,522.680054 281.150055,543.997620 
z"/>
</svg>